#tb 0: 1/600
0,          0,          0,        1,   921600, 0x1492e3ed
0,         40,         40,        1,   921600, 0x1492e3ed
0,         80,         80,        1,   921600, 0x1492e3ed
0,        120,        120,        1,   921600, 0x23ef4fc7
0,        160,        160,        1,   921600, 0x23ef4fc7
0,        200,        200,        1,   921600, 0xe406d4be
0,        240,        240,        1,   921600, 0xe406d4be
0,        280,        280,        1,   921600, 0xe406d4be
0,        320,        320,        1,   921600, 0x62b8b5a1
0,        360,        360,        1,   921600, 0x62b8b5a1
0,        400,        400,        1,   921600, 0x7d8ba674
0,        440,        440,        1,   921600, 0x7d8ba674
0,        480,        480,        1,   921600, 0x7d8ba674
0,        520,        520,        1,   921600, 0xfe666be7
0,        560,        560,        1,   921600, 0xfe666be7
0,        600,        600,        1,   921600, 0x721baec0
0,        640,        640,        1,   921600, 0x721baec0
0,        680,        680,        1,   921600, 0x721baec0
0,        720,        720,        1,   921600, 0xc237180a
0,        760,        760,        1,   921600, 0xc237180a
0,        800,        800,        1,   921600, 0xf03a7482
0,        840,        840,        1,   921600, 0xf03a7482
0,        880,        880,        1,   921600, 0xf03a7482
0,        920,        920,        1,   921600, 0x5612a391
0,        960,        960,        1,   921600, 0x5612a391
0,       1000,       1000,        1,   921600, 0x9dbcc46a
0,       1040,       1040,        1,   921600, 0x9dbcc46a
0,       1080,       1080,        1,   921600, 0x9dbcc46a
0,       1120,       1120,        1,   921600, 0xa128a5d5
0,       1160,       1160,        1,   921600, 0xa128a5d5
0,       1200,       1200,        1,   921600, 0x63e0025c
0,       1240,       1240,        1,   921600, 0x63e0025c
0,       1280,       1280,        1,   921600, 0x63e0025c
0,       1320,       1320,        1,   921600, 0x262359ed
0,       1360,       1360,        1,   921600, 0x262359ed
0,       1400,       1400,        1,   921600, 0x343688e8
0,       1440,       1440,        1,   921600, 0x343688e8
0,       1480,       1480,        1,   921600, 0x343688e8
0,       1520,       1520,        1,   921600, 0x343688e8
0,       1560,       1560,        1,   921600, 0x343688e8
0,       1600,       1600,        1,   921600, 0x343688e8
0,       1640,       1640,        1,   921600, 0x343688e8
0,       1680,       1680,        1,   921600, 0x343688e8
0,       1720,       1720,        1,   921600, 0x343688e8
0,       1760,       1760,        1,   921600, 0x343688e8
0,       1800,       1800,        1,   921600, 0xe4b29d57
0,       1840,       1840,        1,   921600, 0xe4b29d57
0,       1880,       1880,        1,   921600, 0xe4b29d57
0,       1920,       1920,        1,   921600, 0x198e8a4a
0,       1960,       1960,        1,   921600, 0x198e8a4a
0,       2000,       2000,        1,   921600, 0x0cad8dc9
0,       2040,       2040,        1,   921600, 0x0cad8dc9
0,       2080,       2080,        1,   921600, 0x0cad8dc9
0,       2120,       2120,        1,   921600, 0x1f74cf3d
0,       2160,       2160,        1,   921600, 0x1f74cf3d
0,       2200,       2200,        1,   921600, 0xec5b5449
0,       2240,       2240,        1,   921600, 0xec5b5449
0,       2280,       2280,        1,   921600, 0xec5b5449
0,       2320,       2320,        1,   921600, 0x39829711
0,       2360,       2360,        1,   921600, 0x39829711
0,       2400,       2400,        1,   921600, 0x6de5b9c6
0,       2440,       2440,        1,   921600, 0x6de5b9c6
0,       2480,       2480,        1,   921600, 0x6de5b9c6
0,       2520,       2520,        1,   921600, 0x47b0e9d4
0,       2560,       2560,        1,   921600, 0x47b0e9d4
0,       2600,       2600,        1,   921600, 0x756452b8
0,       2640,       2640,        1,   921600, 0x756452b8
0,       2680,       2680,        1,   921600, 0x756452b8
0,       2720,       2720,        1,   921600, 0x6fce3478
0,       2760,       2760,        1,   921600, 0x6fce3478
0,       2800,       2800,        1,   921600, 0x372397cd
0,       2840,       2840,        1,   921600, 0x372397cd
0,       2880,       2880,        1,   921600, 0x372397cd
0,       2920,       2920,        1,   921600, 0xe3999ba1
0,       2960,       2960,        1,   921600, 0xe3999ba1
0,       3000,       3000,        1,   921600, 0x6ba26b43
0,       3040,       3040,        1,   921600, 0x6ba26b43
0,       3080,       3080,        1,   921600, 0x6ba26b43
0,       3120,       3120,        1,   921600, 0x4e9ee49e
0,       3160,       3160,        1,   921600, 0x4e9ee49e
0,       3200,       3200,        1,   921600, 0xdb5fd6e7
0,       3240,       3240,        1,   921600, 0xdb5fd6e7
0,       3280,       3280,        1,   921600, 0xdb5fd6e7
0,       3320,       3320,        1,   921600, 0x8f2254a5
0,       3360,       3360,        1,   921600, 0x8f2254a5
0,       3400,       3400,        1,   921600, 0x8f2254a5
0,       3440,       3440,        1,   921600, 0x8f2254a5
0,       3480,       3480,        1,   921600, 0x8f2254a5
0,       3520,       3520,        1,   921600, 0x8f2254a5
0,       3560,       3560,        1,   921600, 0x8f2254a5
0,       3600,       3600,        1,   921600, 0x8f2254a5
0,       3640,       3640,        1,   921600, 0x8f2254a5
0,       3680,       3680,        1,   921600, 0x8f2254a5
0,       3720,       3720,        1,   921600, 0x57e95c32
0,       3760,       3760,        1,   921600, 0x57e95c32
0,       3800,       3800,        1,   921600, 0x41627a9b
0,       3840,       3840,        1,   921600, 0x41627a9b
0,       3880,       3880,        1,   921600, 0x41627a9b
0,       3920,       3920,        1,   921600, 0x7412dcee
0,       3960,       3960,        1,   921600, 0x7412dcee
0,       4000,       4000,        1,   921600, 0xaebe10ed
0,       4040,       4040,        1,   921600, 0xaebe10ed
0,       4080,       4080,        1,   921600, 0xaebe10ed
0,       4120,       4120,        1,   921600, 0x411a91f6
0,       4160,       4160,        1,   921600, 0x411a91f6
0,       4200,       4200,        1,   921600, 0xb059df3f
0,       4240,       4240,        1,   921600, 0xb059df3f
0,       4280,       4280,        1,   921600, 0xb059df3f
0,       4320,       4320,        1,   921600, 0x4d6f5a77
0,       4360,       4360,        1,   921600, 0x4d6f5a77
0,       4400,       4400,        1,   921600, 0xbbf06df4
0,       4440,       4440,        1,   921600, 0xbbf06df4
0,       4480,       4480,        1,   921600, 0xbbf06df4
0,       4520,       4520,        1,   921600, 0xe27f7bf6
0,       4560,       4560,        1,   921600, 0xe27f7bf6
0,       4600,       4600,        1,   921600, 0xd7e8360e
0,       4640,       4640,        1,   921600, 0xd7e8360e
0,       4680,       4680,        1,   921600, 0xd7e8360e
0,       4720,       4720,        1,   921600, 0x1dd4c344
0,       4760,       4760,        1,   921600, 0x1dd4c344
0,       4800,       4800,        1,   921600, 0x7995a7ce
0,       4840,       4840,        1,   921600, 0x7995a7ce
0,       4880,       4880,        1,   921600, 0x7995a7ce
0,       4920,       4920,        1,   921600, 0x2ef3c566
0,       4960,       4960,        1,   921600, 0x2ef3c566
0,       5000,       5000,        1,   921600, 0xf296736e
0,       5040,       5040,        1,   921600, 0xf296736e
0,       5080,       5080,        1,   921600, 0xf296736e
0,       5120,       5120,        1,   921600, 0xf296736e
0,       5160,       5160,        1,   921600, 0xf296736e
0,       5200,       5200,        1,   921600, 0xf296736e
0,       5240,       5240,        1,   921600, 0xf296736e
0,       5280,       5280,        1,   921600, 0xf296736e
0,       5320,       5320,        1,   921600, 0xf296736e
0,       5360,       5360,        1,   921600, 0xf296736e
0,       5400,       5400,        1,   921600, 0x1a488311
0,       5440,       5440,        1,   921600, 0x1a488311
0,       5480,       5480,        1,   921600, 0x1a488311
0,       5520,       5520,        1,   921600, 0x9e28011b
0,       5560,       5560,        1,   921600, 0x9e28011b
0,       5600,       5600,        1,   921600, 0x84d1ea80
0,       5640,       5640,        1,   921600, 0x84d1ea80
0,       5680,       5680,        1,   921600, 0x84d1ea80
0,       5720,       5720,        1,   921600, 0x9ed41052
0,       5760,       5760,        1,   921600, 0x9ed41052
0,       5800,       5800,        1,   921600, 0xd4db7206
0,       5840,       5840,        1,   921600, 0xd4db7206
0,       5880,       5880,        1,   921600, 0xd4db7206
0,       5920,       5920,        1,   921600, 0x55f695a9
0,       5960,       5960,        1,   921600, 0x55f695a9
0,       6000,       6000,        1,   921600, 0x9d8c667f
0,       6040,       6040,        1,   921600, 0x9d8c667f
0,       6080,       6080,        1,   921600, 0x9d8c667f
0,       6120,       6120,        1,   921600, 0x9b6037ec
0,       6160,       6160,        1,   921600, 0x9b6037ec
0,       6200,       6200,        1,   921600, 0x57c5e835
0,       6240,       6240,        1,   921600, 0x57c5e835
0,       6280,       6280,        1,   921600, 0x57c5e835
0,       6320,       6320,        1,   921600, 0x476dad89
0,       6360,       6360,        1,   921600, 0x476dad89
0,       6400,       6400,        1,   921600, 0xcfd6ad2b
0,       6440,       6440,        1,   921600, 0xcfd6ad2b
0,       6480,       6480,        1,   921600, 0xcfd6ad2b
0,       6520,       6520,        1,   921600, 0x3b372379
0,       6560,       6560,        1,   921600, 0x3b372379
0,       6600,       6600,        1,   921600, 0x36f245f5
0,       6620,       6620,        1,   921600, 0x36f245f5
